<svg width="1920" height="1080" viewBox="0 0 1920 1080" xmlns="http://www.w3.org/2000/svg"><rect width="1920" height="1080" fill="#1ed65e"/><path d="M 0,1080 C 0,1080 0,180 0,180 C 27.126026317294773,183.08453327773566 54.252052634589546,186.16906655547132 87,197 C 119.74794736541045,207.83093344452868 158.11781577893657,226.40826705585042 196,203 C 233.88218422106343,179.59173294414958 271.2766842496641,114.19786522112702 312,126 C 352.7233157503359,137.80213477887298 396.7754472224072,226.80027205964143 439,241 C 481.2245527775928,255.19972794035857 521.621526860707,194.60104654030732 553,167 C 584.378473139293,139.39895345969268 606.7384453347645,144.79554177912925 635,143 C 663.2615546652355,141.20445822087075 697.424691800235,132.21678634317558 732,137 C 766.575308199765,141.78321365682442 801.5627874642955,160.33731284816835 839,160 C 876.4372125357045,159.66268715183165 916.3241583425822,140.43396226415098 957,157 C 997.6758416574178,173.56603773584902 1039.1405791653751,225.92683809522785 1071,228 C 1102.8594208346249,230.07316190477215 1125.1135249959175,181.85868535493762 1165,170 C 1204.8864750040825,158.14131464506238 1262.405320850955,182.63842048502167 1298,180 C 1333.594679149045,177.36157951497833 1347.2651916002624,147.58763270497568 1374,135 C 1400.7348083997376,122.41236729502432 1440.533912747996,127.01104869507557 1481,153 C 1521.466087252004,178.98895130492443 1562.5991574077536,226.368172514722 1605,246 C 1647.4008425922464,265.631827485278 1691.0694576209894,257.5162612460364 1722,225 C 1752.9305423790106,192.48373875396362 1771.1230121082885,135.56678250113245 1802,124 C 1832.8769878917115,112.43321749886755 1876.4384939458557,146.21660874943376 1920,180 C 1920,180 1920,1080 1920,1080 Z" fill="#7e1ed6" opacity="0.09999999999999999"/><path d="M 0,1080 C 0,1080 0,360 0,360 C 36.7111701372842,343.8113414089255 73.4223402745684,327.62268281785106 112,342 C 150.5776597254316,356.37731718214894 191.02180903901063,401.3206101375213 222,395 C 252.97819096098937,388.6793898624787 274.4904235693891,331.09487663206363 309,305 C 343.5095764306109,278.90512336793637 391.016496683433,284.29988333422415 430,293 C 468.983503316567,301.70011666577585 499.44358969687914,313.70559003103966 534,314 C 568.5564103031209,314.29440996896034 607.209144529051,302.8777565416171 638,298 C 668.790855470949,293.1222434583829 691.7198321869175,294.7833838024919 730,318 C 768.2801678130825,341.2166161975081 821.9115267232792,385.9887082484151 864,401 C 906.0884732767208,416.0112917515849 936.6340609199655,401.2617832038476 966,376 C 995.3659390800345,350.7382167961524 1023.552229596859,314.96415893619456 1055,325 C 1086.447770403141,335.03584106380544 1121.157020692599,390.88158105137416 1156,392 C 1190.842979307401,393.11841894862584 1225.8196876327447,339.5095168583089 1268,318 C 1310.1803123672553,296.4904831416911 1359.5642287764224,307.08035151539025 1401,314 C 1442.4357712235776,320.91964848460975 1475.9233972615662,324.1690770801302 1503,343 C 1530.0766027384338,361.8309229198698 1550.742182177312,396.24334016408886 1586,387 C 1621.257817822688,377.75665983591114 1671.1078740291855,324.8575622635145 1715,319 C 1758.8921259708145,313.1424377364855 1796.8263217059468,354.3264107818529 1830,369 C 1863.1736782940532,383.6735892181471 1891.5868391470267,371.83679460907354 1920,360 C 1920,360 1920,1080 1920,1080 Z" fill="#7e1ed6" opacity="0.19999999999999998"/><path d="M 0,1080 C 0,1080 0,540 0,540 C 37.41103114800681,510.9204262978912 74.82206229601363,481.8408525957824 106,499 C 137.17793770398637,516.1591474042176 162.12278196395235,579.5570159147615 196,583 C 229.87721803604765,586.4429840852385 272.686809848177,529.9310837451716 309,525 C 345.313190151823,520.0689162548284 375.12997864333977,566.7186491045521 411,588 C 446.87002135666023,609.2813508954479 488.7932755784641,605.1943198366199 526,581 C 563.2067244215359,556.8056801633801 595.6969190428041,512.5040715489683 630,509 C 664.3030809571959,505.4959284510316 700.4190482503195,542.7893939675066 736,553 C 771.5809517496805,563.2106060324934 806.6268879559179,546.3383525810054 849,549 C 891.3731120440821,551.6616474189946 941.0733999260082,573.8571957084721 974,578 C 1006.9266000739918,582.1428042915279 1023.0795123400492,568.2328645851063 1058,553 C 1092.9204876599508,537.7671354148937 1146.6085507137946,521.2113459511024 1190,503 C 1233.3914492862054,484.7886540488976 1266.4862848047728,464.9217516104841 1298,490 C 1329.5137151952272,515.0782483895159 1359.446310067115,585.1016476069614 1396,581 C 1432.553689932885,576.8983523930386 1475.7284749267676,498.6716579616706 1511,486 C 1546.2715250732324,473.3283420383294 1573.6397902258147,526.2117205463563 1608,544 C 1642.3602097741853,561.7882794536437 1683.7123641699727,544.4814598529041 1714,555 C 1744.2876358300273,565.5185401470959 1763.5107530942935,603.8624400420274 1796,606 C 1828.4892469057065,608.1375599579726 1874.2446234528534,574.0687799789863 1920,540 C 1920,540 1920,1080 1920,1080 Z" fill="#7e1ed6" opacity="0.3"/><path d="M 0,1080 C 0,1080 0,720 0,720 C 30.719897403487934,713.3074604125826 61.43979480697587,706.6149208251652 96,714 C 130.56020519302413,721.3850791748348 168.96071817558445,742.8477771119219 205,759 C 241.03928182441555,775.1522228880781 274.7173324906863,785.993970727147 312,784 C 349.2826675093137,782.006029272853 390.1699518616703,767.1763399794902 423,737 C 455.8300481383297,706.8236600205098 480.60286006263243,661.3006693548923 514,653 C 547.3971399373676,644.6993306451077 589.4186078878004,673.6209826009409 632,694 C 674.5813921121996,714.3790173990591 717.7227083861661,726.2154002413441 754,716 C 790.2772916138339,705.7845997586559 819.6905585675355,673.5174164336829 853,670 C 886.3094414324645,666.4825835663171 923.5150573436921,691.714934023924 955,697 C 986.4849426563079,702.285065976076 1012.249212057696,687.622847470621 1053,677 C 1093.750787942304,666.377152529379 1149.4880944255249,659.7936760935925 1184,672 C 1218.5119055744751,684.2063239064075 1231.7984102402052,715.2024481550093 1265,721 C 1298.2015897597948,726.7975518449907 1351.3182646136534,707.3965312863705 1396,697 C 1440.6817353863466,686.6034687136295 1476.9285313051812,685.2114266995084 1504,687 C 1531.0714686948188,688.7885733004916 1548.9676101656216,693.7577619155958 1581,711 C 1613.0323898343784,728.2422380844042 1659.2010280323323,757.7575256381089 1696,748 C 1732.7989719676677,738.2424743618911 1760.2282777050477,689.2121355319688 1796,678 C 1831.7717222949523,666.7878644680312 1875.8858611474761,693.3939322340157 1920,720 C 1920,720 1920,1080 1920,1080 Z" fill="#7e1ed6" opacity="0.39999999999999997"/><path d="M 0,1080 C 0,1080 0,900 0,900 C 29.182709960562576,933.0597724447009 58.36541992112515,966.1195448894017 99,960 C 139.63458007887485,953.8804551105983 191.72103027606192,908.5815928870937 230,897 C 268.2789697239381,885.4184071129063 292.75045897462695,907.5540835622236 319,925 C 345.24954102537305,942.4459164377764 373.27713382543027,955.2020728640118 409,926 C 444.72286617456973,896.7979271359882 488.14100572365214,825.6376249817297 528,840 C 567.8589942763479,854.3623750182703 604.1588432799614,954.2474272090695 640,962 C 675.8411567200386,969.7525727909305 711.2236211565023,885.3726661819921 747,851 C 782.7763788434977,816.6273338180079 818.9466720940288,832.2619080629618 852,839 C 885.0533279059712,845.7380919370382 914.9896904673819,843.579701566161 954,864 C 993.0103095326181,884.420298433839 1041.0945660364432,927.4192856723942 1077,939 C 1112.9054339635568,950.5807143276058 1136.6320453868443,930.7431557442626 1170,934 C 1203.3679546131557,937.2568442557374 1246.3772524161789,963.6080913505557 1288,966 C 1329.6227475838211,968.3919086494443 1369.8589449484407,946.824478853515 1399,952 C 1428.1410550515593,957.175521146485 1446.1869677900588,989.093993235384 1475,965 C 1503.8130322099412,940.906006764616 1543.3931838913245,860.7995482049486 1581,849 C 1618.6068161086755,837.2004517950514 1654.2402966446434,893.7078139448214 1693,917 C 1731.7597033553566,940.2921860551786 1773.6456295301018,930.3691960157652 1812,922 C 1850.3543704698982,913.6308039842348 1885.177185234949,906.8154019921174 1920,900 C 1920,900 1920,1080 1920,1080 Z" fill="#7e1ed6" opacity="0.49999999999999994"/></svg>